# xmcd
#
# Track frame offsets:
#	150
#	15137
#	29365
#	49310
#	63897
#	78487
#	92965
#	107205
#	121385
#	135312
#	148510
#	163207
#	178472
#	192612
#	204925
#	218335
#	233832
#	247892
#	262392
#	277012
#	291102
#	304270
#	324820
#	336857
#
# Disc length: 4682 seconds
#
# Revision: 0
# Processed by: cddbd v1.5.2PL0 Copyright (c) Steve Scherf et al.
# Submitted via: EasyCDDAExtractor 10.0.3.1
#
DISCID=64124818
DTITLE=Claude Thornhill - The 1946-47 Performances Vol. 1
DYEAR=1900
DGENRE=
TTITLE0=Twilight Song
TTITLE1=Under The Willow Tree
TTITLE2=Arab Dance
TTITLE3=Yours Is My Heart Alone
TTITLE4=If You Were The Only Girl In The World
TTITLE5=It's A Pity To Say Goodnight
TTITLE6=Twilight On The Trail
TTITLE7=Gotta Get Me Someone To Love
TTITLE8=So Would I
TTITLE9=Sonata
TTITLE10=This Time
TTITLE11=I Knew You When
TTITLE12=Far Away Island
TTITLE13=I Get The Blues When It Rains
TTITLE14=Why Did I Have To Fall in Love With You
TTITLE15=A Sunday Kind Of Love
TTITLE16=We Knew It All The Time
TTITLE17=Would You Believe Me
TTITLE18=You're Not So Easy To Forget
TTITLE19=Just Plain Love
TTITLE20=Early Autumn
TTITLE21=La Paloma
TTITLE22=Oh You Beautiful Doll
TTITLE23=Warsaw Concerto
EXTD=
EXTT0=
EXTT1=
EXTT2=
EXTT3=
EXTT4=
EXTT5=
EXTT6=
EXTT7=
EXTT8=
EXTT9=
EXTT10=
EXTT11=
EXTT12=
EXTT13=
EXTT14=
EXTT15=
EXTT16=
EXTT17=
EXTT18=
EXTT19=
EXTT20=
EXTT21=
EXTT22=
EXTT23=
PLAYORDER=
